<svg xmlns="http://www.w3.org/2000/svg" viewBox="0 0 217.27 375.26">
  <defs>
    <style>
      .cls-1 {
        fill: #fff;
      }
    </style>
  </defs>
  <title>lcd-c</title>
  <g id="block">
    <polygon id="start-3" class="cls-1" points="156.19 57.6 184.86 28.93 156.19 0.25 100.72 0.25 59.74 0.23 31.04 28.93 59.74 57.63 100.72 57.6 156.19 57.6"/>
    <polygon id="start-1" points="156.19 216.3 184.86 187.63 156.19 158.95 100.72 158.95 59.74 158.92 31.04 187.63 59.74 216.33 100.72 216.3 156.19 216.3"/>
    <polygon id="start-2" class="cls-1" points="0.03 156.56 28.7 185.24 57.38 156.56 57.38 101.1 57.41 60.11 28.7 31.41 0 60.11 0.03 101.1 0.03 156.56"/>
    <polygon id="start-6" class="cls-1" points="0.03 314.96 28.7 343.64 57.38 314.96 57.38 259.5 57.41 218.51 28.7 189.81 0 218.51 0.03 259.5 0.03 314.96"/>
    <polygon id="start-4" points="159.07 156.56 187.75 185.24 216.42 156.56 216.42 101.1 216.45 60.11 187.75 31.41 159.04 60.11 159.07 101.1 159.07 156.56"/>
    <polygon id="start-5" points="159.07 314.96 187.75 343.64 216.42 314.96 216.42 259.5 216.45 218.51 187.75 189.81 159.04 218.51 159.07 259.5 159.07 314.96"/>
    <polygon id="start-7" class="cls-1" points="59.49 317.65 30.81 346.32 59.49 375 114.95 375 155.94 375.03 184.64 346.32 155.94 317.62 114.95 317.65 59.49 317.65"/>
  </g>
</svg>
