<svg id="Gears" xmlns="http://www.w3.org/2000/svg" viewBox="0 0 76.77 80.7">
  <title>side-gear</title>
  <g id="xs_ccw" data-name="xs ccw">
    <path d="M34.68,80.7l12-.82L48,65.22a26.7,26.7,0,0,0,5.24-2.73,26.4,26.4,0,0,0,3.85-3.15l14.36,4.39,5.3-10.81-12-8.48a26.74,26.74,0,0,0-.54-10.82l11-10.23-6.71-10L55.12,19.56a26.71,26.71,0,0,0-9.65-4.92L42.1,0l-12,.82L28.75,15.48a26.54,26.54,0,0,0-9.09,5.88L5.3,17,0,27.77l12,8.49a26.69,26.69,0,0,0,.54,10.81l-11,10.24,6.71,10,13.36-6.18a26.61,26.61,0,0,0,9.64,4.93ZM29.11,46.58a11.18,11.18,0,1,1,15.51,3.05A11.17,11.17,0,0,1,29.11,46.58Z"/>
    <path d="M45.66,35.46a8.77,8.77,0,1,0-2.38,12.17A8.76,8.76,0,0,0,45.66,35.46ZM34.2,43.16a5,5,0,1,1,7,1.37A5.05,5.05,0,0,1,34.2,43.16Z"/>
  </g>
</svg>
